<?xml version="1.0" encoding="UTF-8"?>
<svg width="652px" height="652px" viewBox="0 0 652 652" version="1.1" xmlns="http://www.w3.org/2000/svg" xmlns:xlink="http://www.w3.org/1999/xlink">
    <!-- Generator: Sketch 62 (91390) - https://sketch.com -->
    <title>noun_Info_2398080</title>
    <desc>Created with Sketch.</desc>
    <g id="Page-1" stroke="none" stroke-width="1" fill="none" fill-rule="evenodd">
        <g id="noun_Info_2398080" fill="#D0021B" fill-rule="nonzero">
            <path d="M325.58,0.97 C146.29,0.97 0.96,146.3 0.96,325.59 C0.96,504.87 146.29,650.21 325.58,650.21 L651.69,651.69 L650.21,325.58 C650.21,146.3 504.87,0.97 325.58,0.97 Z M374.69,486.66 C374.69,514.06 427.78,512.04 427.78,512.04 L427.78,542.72 L234.3,542.72 L234.3,512.04 C234.3,512.04 287.39,514.06 287.39,486.66 C287.39,463.53 287.39,285.71 287.39,285.71 C274.86,254.37 224.88,248.18 224.88,247.6 L224.88,230.19 L374.69,230.19 C374.69,315.68 374.69,401.17 374.69,486.66 Z M329.29,109.95 C356.49,109.95 378.54,131.99 378.54,159.19 C378.54,186.38 356.49,208.43 329.29,208.43 C302.1,208.43 280.05,186.38 280.05,159.19 C280.05,131.99 302.1,109.95 329.29,109.95 Z" id="Shape"></path>
        </g>
    </g>
</svg>